# xmcd
#
# Track frame offsets:
#	150
#	18177
#	36117
#
# Disc length: 831 seconds
#
# Revision: 4
# Processed by: cddbd v1.5.2PL0 Copyright (c) Steve Scherf et al.
# Submitted via: audiograbber 1.83.01
#
DISCID=17033d03
DTITLE=P!nk - Just Like a Pill
DYEAR=2002
DGENRE=Rock
TTITLE0=Just Like a Pill (album version)
TTITLE1=Just Like a Pill (instrumental)
TTITLE2=Don't Let Me Get Me (Ernie Lake Ext. Club.vox)
EXTD=CD Maxi
EXTT0=
EXTT1=
EXTT2=
PLAYORDER=
